<svg xmlns="http://www.w3.org/2000/svg" version="1.1" xmlns:xlink="http://www.w3.org/1999/xlink" xmlns:svgjs="http://svgjs.dev/svgjs" width="1440" height="160" preserveAspectRatio="none" viewBox="0 0 1440 160"><g mask="url(&quot;#SvgjsMask1031&quot;)" fill="none"><rect width="1440" height="160" x="0" y="0" fill="rgba(255, 192, 203, 1)"></rect><path d="M 0,35 C 20.6,52.8 61.8,129 103,124 C 144.2,119 164.8,14.8 206,10 C 247.2,5.2 267.8,99 309,100 C 350.2,101 370.8,7.4 412,15 C 453.2,22.6 473.8,127.4 515,138 C 556.2,148.6 576.8,69.4 618,68 C 659.2,66.6 679.8,138 721,131 C 762.2,124 782.8,39.6 824,33 C 865.2,26.4 885.8,89.4 927,98 C 968.2,106.6 988.8,69.6 1030,76 C 1071.2,82.4 1091.8,138 1133,130 C 1174.2,122 1194.8,45.8 1236,36 C 1277.2,26.2 1298.2,78 1339,81 C 1379.8,84 1419.8,57 1440,51L1440 160L0 160z" fill="rgba(255, 255, 255, 1)"></path></g><defs><mask id="SvgjsMask1031"><rect width="1440" height="160" fill="#ffffff"></rect></mask></defs></svg>